<svg width="24" height="24" viewBox="0 0 24 24" fill="none" xmlns="http://www.w3.org/2000/svg">
<path d="M15.492 22.082C13.912 22.082 12.712 20.282 11.992 18.802C11.272 20.272 10.072 22.082 8.492 22.082C6.062 22.082 3.242 19.212 3.242 17.332C3.242 16.132 3.902 15.312 4.722 14.742C3.172 14.142 2.152 12.872 1.762 10.982C1.322 8.762 0.762003 4.812 2.022 3.282C2.402 2.822 2.912 2.582 3.502 2.582C6.952 2.582 10.472 7.762 12.002 10.322C13.532 7.772 17.052 2.582 20.502 2.582C21.092 2.582 21.602 2.822 21.982 3.282C23.242 4.812 22.682 8.762 22.242 10.982C21.852 12.872 20.832 14.142 19.282 14.742C20.102 15.302 20.762 16.132 20.762 17.332C20.762 19.212 17.942 22.082 15.512 22.082H15.492ZM11.992 16.082C12.312 16.082 12.602 16.292 12.702 16.592C13.242 18.202 14.502 20.572 15.492 20.572C17.142 20.572 19.242 18.372 19.242 17.322C19.242 15.542 15.932 15.072 15.902 15.062C15.8047 15.0504 15.7107 15.0196 15.6254 14.9716C15.54 14.9235 15.465 14.8591 15.4046 14.782C15.3442 14.7049 15.2997 14.6166 15.2735 14.5222C15.2473 14.4278 15.24 14.3292 15.252 14.232C15.302 13.822 15.662 13.532 16.082 13.572C18.762 13.872 20.292 12.922 20.762 10.662C21.382 7.532 21.412 4.942 20.812 4.212C20.7754 4.16229 20.727 4.12252 20.6711 4.09632C20.6152 4.07013 20.5536 4.05833 20.492 4.062C17.782 4.062 14.292 9.142 12.662 12.142C12.532 12.382 12.272 12.542 12.002 12.542C11.732 12.542 11.472 12.402 11.342 12.162L11.332 12.142C9.702 9.142 6.212 4.062 3.502 4.062C3.362 4.062 3.272 4.102 3.182 4.212C2.592 4.942 2.612 7.532 3.232 10.662C3.702 12.912 5.232 13.862 7.912 13.562C8.332 13.522 8.692 13.812 8.742 14.222C8.792 14.632 8.502 15.002 8.092 15.052C8.062 15.052 4.752 15.532 4.752 17.312C4.752 18.362 6.852 20.562 8.502 20.562C9.492 20.562 10.752 18.182 11.292 16.582C11.392 16.272 11.682 16.072 12.002 16.072L11.992 16.082Z" fill="black"/>
</svg>
