<svg width="24" height="24" viewBox="0 0 24 24" fill="none" xmlns="http://www.w3.org/2000/svg">
<path d="M9 5C9 4.73478 8.89464 4.48043 8.70711 4.29289C8.51957 4.10536 8.26522 4 8 4H6C5.73478 4 5.48043 4.10536 5.29289 4.29289C5.10536 4.48043 5 4.73478 5 5V19C5 19.2652 5.10536 19.5196 5.29289 19.7071C5.48043 19.8946 5.73478 20 6 20H8C8.26522 20 8.51957 19.8946 8.70711 19.7071C8.89464 19.5196 9 19.2652 9 19M9 5V19M9 5C9 4.73478 9.10536 4.48043 9.29289 4.29289C9.48043 4.10536 9.73478 4 10 4H12C12.2652 4 12.5196 4.10536 12.7071 4.29289C12.8946 4.48043 13 4.73478 13 5V19C13 19.2652 12.8946 19.5196 12.7071 19.7071C12.5196 19.8946 12.2652 20 12 20H10C9.73478 20 9.48043 19.8946 9.29289 19.7071C9.10536 19.5196 9 19.2652 9 19M5 8H9M9 16H13" stroke="black" stroke-width="2" stroke-linecap="round" stroke-linejoin="round"/>
<path d="M14 9L18 8M16 16L19.923 15.02M13.803 4.56L15.987 4.03C16.549 3.895 17.12 4.22 17.269 4.762L20.964 18.18C21.0292 18.4256 21.0003 18.6868 20.8831 18.9123C20.7658 19.1377 20.5686 19.3113 20.33 19.399L20.197 19.44L18.013 19.97C17.451 20.105 16.88 19.78 16.731 19.238L13.036 5.82C12.9708 5.57435 12.9997 5.31321 13.117 5.08773C13.2342 4.86225 13.4315 4.68867 13.67 4.601L13.803 4.56Z" stroke="black" stroke-width="2" stroke-linecap="round" stroke-linejoin="round"/>
</svg>
