<svg viewBox="0 0 72 42" fill="none" xmlns="http://www.w3.org/2000/svg"><path d="M36.3558 41.236C35.5578 40.9882 34.7297 40.816 33.9701 40.4693C33.1877 40.1122 32.4282 39.6537 31.7419 39.1168C31.0773 38.5966 30.5196 37.921 29.8766 37.2749V40.5386H23.0117V0.314941H30.4511V17.323C30.8465 16.9454 31.2047 16.5883 31.5773 16.2493C33.3235 14.6617 35.4099 14.1749 37.6357 14.0555C43.5092 13.7408 47.4356 17.9871 48.7792 23.3661C49.7672 27.3221 49.6169 31.2344 47.7769 34.9206C45.9633 38.5542 43.044 40.5194 39.2618 41.0999C39.09 41.1269 38.9229 41.1885 38.7535 41.2348H36.3534L36.3558 41.236ZM29.8538 27.272C29.855 29.0612 30.1338 30.4175 30.8982 31.6236C32.32 33.8687 35.2789 34.8076 37.9747 33.861C40.4372 32.9966 41.6054 31.0392 41.8218 28.4036C42.0261 25.9157 41.4949 23.6346 39.4241 22.1716C37.2812 20.6573 34.9472 20.6445 32.7082 21.8916C30.5905 23.0707 29.9043 25.199 29.8538 27.272Z" fill="#EC0000"></path><path d="M0 26.7672C0.203111 25.7718 0.330507 24.7507 0.622555 23.7861C2.02511 19.1571 5.8049 16.5678 10.5462 16.9326C14.7707 17.2575 18.2296 20.7074 18.9423 25.3159C19.4831 28.8146 19.0072 32.0924 16.8787 34.9142C14.8295 37.6307 12.0725 38.6531 8.85879 38.4566C3.92161 38.1535 0.58049 34.1282 0.108166 29.1061C0.0949456 28.9636 0.0372571 28.8274 0 28.6887C0 28.0478 0 27.4082 0 26.7672ZM4.96722 27.6792C4.96001 30.5729 6.7832 32.4957 9.54263 32.5008C12.379 32.5072 14.1926 30.641 14.1998 27.7113C14.2058 24.7751 12.3958 22.8883 9.57508 22.8922C6.79402 22.896 4.97563 24.7854 4.96842 27.6792H4.96722Z" fill="#EC0000"></path><path d="M60.1168 24.1805C58.3213 24.0675 56.9115 25.5035 56.7409 27.4082C56.563 29.3875 57.2324 31.0405 58.504 32.4457C58.6133 32.5664 58.7564 32.6512 58.9162 32.7783C58.3549 33.373 57.8538 33.8842 57.3742 34.4159C56.8899 34.9541 56.426 35.5141 55.8503 36.1846C55.3539 35.4422 54.9044 34.8783 54.5643 34.2464C52.7375 30.8453 52.4491 27.2233 53.4021 23.4947C54.0223 21.0697 55.6592 19.6569 57.9006 19.1174C59.1385 18.8194 60.4245 18.6409 61.6925 18.6126C64.8305 18.542 67.9709 18.5895 71.1113 18.5908C71.2267 18.5908 71.3433 18.6049 71.4971 18.6152V24.0893H69.2593C69.5285 24.3462 69.6487 24.4669 69.7748 24.58C72.5932 27.1218 72.7554 32.9671 70.133 35.7337C68.0274 37.9558 63.2561 38.0778 61.4088 34.0974C60.5952 32.3429 60.237 30.4715 60.1325 28.5488C60.0543 27.1077 60.1168 25.6589 60.1168 24.1792V24.1805ZM63.625 24.1523C63.625 25.253 63.5685 26.2998 63.6394 27.3363C63.72 28.5038 63.8954 29.6739 64.5877 30.6501C65.5059 31.9447 67.1945 31.8086 67.8158 30.338C68.5321 28.6413 68.2401 26.9882 67.2918 25.4893C66.4157 24.1047 65.072 23.9879 63.625 24.1523Z" fill="#EC0000"></path></svg>