<svg width="24" height="24" viewBox="0 0 24 24" fill="none" xmlns="http://www.w3.org/2000/svg">
<path d="M6.05001 17.775C5.71668 17.5917 5.45835 17.346 5.27501 17.038C5.09168 16.73 5.00001 16.384 5.00001 16V11.2L2.60001 9.87499C2.41668 9.77499 2.28335 9.64999 2.20001 9.49999C2.11668 9.34999 2.07501 9.18333 2.07501 8.99999C2.07501 8.81666 2.11668 8.64999 2.20001 8.49999C2.28335 8.34999 2.41668 8.22499 2.60001 8.12499L11.05 3.52499C11.2 3.44166 11.3543 3.37899 11.513 3.33699C11.6717 3.29499 11.834 3.27433 12 3.27499C12.166 3.27566 12.3287 3.29666 12.488 3.33799C12.6473 3.37933 12.8013 3.44166 12.95 3.52499L22.475 8.72499C22.6417 8.80833 22.771 8.92933 22.863 9.08799C22.955 9.24666 23.0007 9.41733 23 9.59999V16C23 16.2833 22.904 16.521 22.712 16.713C22.52 16.905 22.2827 17.0007 22 17C21.7173 16.9993 21.48 16.9033 21.288 16.712C21.096 16.5207 21 16.2833 21 16V10.1L19 11.2V16C19 16.3833 18.9083 16.7293 18.725 17.038C18.5417 17.3467 18.2833 17.5923 17.95 17.775L12.95 20.475C12.8 20.5583 12.646 20.621 12.488 20.663C12.33 20.705 12.1673 20.7257 12 20.725C11.8327 20.7243 11.67 20.7037 11.512 20.663C11.354 20.6223 11.2 20.5597 11.05 20.475L6.05001 17.775ZM12 12.7L18.85 8.99999L12 5.29999L5.15001 8.99999L12 12.7ZM12 18.725L17 16.025V12.25L12.975 14.475C12.825 14.5583 12.6667 14.621 12.5 14.663C12.3333 14.705 12.1667 14.7257 12 14.725C11.8333 14.7243 11.6667 14.7037 11.5 14.663C11.3333 14.6223 11.175 14.5597 11.025 14.475L7.00001 12.25V16.025L12 18.725Z" fill="black"/>
</svg>
